<mxfile host="app.diagrams.net" modified="2023-12-22T02:39:33.576Z" agent="Mozilla/5.0 (Windows NT 10.0; Win64; x64) AppleWebKit/537.36 (KHTML, like Gecko) Chrome/120.0.0.0 Safari/537.36 Edg/120.0.0.0" etag="BsqA4ylrcNqvzgS6Ie66" version="22.1.11" type="github">
  <diagram name="Page-1" id="2YBvvXClWsGukQMizWep">
    <mxGraphModel dx="1189" dy="676" grid="1" gridSize="10" guides="1" tooltips="1" connect="1" arrows="1" fold="1" page="1" pageScale="1" pageWidth="850" pageHeight="1100" background="#ffffff" math="0" shadow="0">
      <root>
        <mxCell id="0" />
        <mxCell id="1" parent="0" />
        <mxCell id="F2qK8FS3vx5LsXxP8EU_-2" value="EMPLOYEE" style="shape=umlActor;verticalLabelPosition=bottom;verticalAlign=top;html=1;outlineConnect=0;" vertex="1" parent="1">
          <mxGeometry x="60" y="120" width="50" height="90" as="geometry" />
        </mxCell>
        <mxCell id="F2qK8FS3vx5LsXxP8EU_-4" value="REGISTRATION" style="rounded=0;whiteSpace=wrap;html=1;" vertex="1" parent="1">
          <mxGeometry x="190" y="80" width="110" height="40" as="geometry" />
        </mxCell>
        <mxCell id="F2qK8FS3vx5LsXxP8EU_-5" value="SUBMIT" style="rounded=0;whiteSpace=wrap;html=1;" vertex="1" parent="1">
          <mxGeometry x="350" y="80" width="110" height="40" as="geometry" />
        </mxCell>
        <mxCell id="F2qK8FS3vx5LsXxP8EU_-6" value="" style="endArrow=none;html=1;rounded=0;entryX=0.043;entryY=0.433;entryDx=0;entryDy=0;entryPerimeter=0;" edge="1" parent="1" target="F2qK8FS3vx5LsXxP8EU_-7">
          <mxGeometry width="50" height="50" relative="1" as="geometry">
            <mxPoint x="120" y="163" as="sourcePoint" />
            <mxPoint x="290" y="160" as="targetPoint" />
          </mxGeometry>
        </mxCell>
        <mxCell id="F2qK8FS3vx5LsXxP8EU_-7" value="1: Login()" style="text;html=1;align=center;verticalAlign=middle;resizable=0;points=[];autosize=1;strokeColor=none;fillColor=none;fontSize=14;" vertex="1" parent="1">
          <mxGeometry x="285" y="150" width="80" height="30" as="geometry" />
        </mxCell>
        <mxCell id="F2qK8FS3vx5LsXxP8EU_-8" value="" style="endArrow=classic;html=1;rounded=0;exitX=1.014;exitY=0.467;exitDx=0;exitDy=0;exitPerimeter=0;" edge="1" parent="1" source="F2qK8FS3vx5LsXxP8EU_-7">
          <mxGeometry width="50" height="50" relative="1" as="geometry">
            <mxPoint x="400" y="200" as="sourcePoint" />
            <mxPoint x="560" y="164" as="targetPoint" />
          </mxGeometry>
        </mxCell>
        <mxCell id="F2qK8FS3vx5LsXxP8EU_-9" value="LOGIN" style="rounded=0;whiteSpace=wrap;html=1;" vertex="1" parent="1">
          <mxGeometry x="510" y="80" width="110" height="40" as="geometry" />
        </mxCell>
        <mxCell id="F2qK8FS3vx5LsXxP8EU_-14" value="" style="endArrow=none;dashed=1;html=1;rounded=0;entryX=0.5;entryY=1;entryDx=0;entryDy=0;" edge="1" parent="1" source="F2qK8FS3vx5LsXxP8EU_-37" target="F2qK8FS3vx5LsXxP8EU_-4">
          <mxGeometry width="50" height="50" relative="1" as="geometry">
            <mxPoint x="245" y="440" as="sourcePoint" />
            <mxPoint x="450" y="220" as="targetPoint" />
          </mxGeometry>
        </mxCell>
        <mxCell id="F2qK8FS3vx5LsXxP8EU_-15" value="" style="endArrow=none;dashed=1;html=1;rounded=0;" edge="1" parent="1">
          <mxGeometry width="50" height="50" relative="1" as="geometry">
            <mxPoint x="80" y="760" as="sourcePoint" />
            <mxPoint x="80" y="240" as="targetPoint" />
          </mxGeometry>
        </mxCell>
        <mxCell id="F2qK8FS3vx5LsXxP8EU_-16" value="" style="endArrow=none;dashed=1;html=1;rounded=0;entryX=0.5;entryY=1;entryDx=0;entryDy=0;" edge="1" parent="1" source="F2qK8FS3vx5LsXxP8EU_-35" target="F2qK8FS3vx5LsXxP8EU_-5">
          <mxGeometry width="50" height="50" relative="1" as="geometry">
            <mxPoint x="405" y="440" as="sourcePoint" />
            <mxPoint x="510" y="230" as="targetPoint" />
          </mxGeometry>
        </mxCell>
        <mxCell id="F2qK8FS3vx5LsXxP8EU_-17" value="" style="endArrow=none;dashed=1;html=1;rounded=0;entryX=0.5;entryY=1;entryDx=0;entryDy=0;" edge="1" parent="1" source="F2qK8FS3vx5LsXxP8EU_-33" target="F2qK8FS3vx5LsXxP8EU_-9">
          <mxGeometry width="50" height="50" relative="1" as="geometry">
            <mxPoint x="565" y="440" as="sourcePoint" />
            <mxPoint x="415" y="130" as="targetPoint" />
          </mxGeometry>
        </mxCell>
        <mxCell id="F2qK8FS3vx5LsXxP8EU_-18" value="" style="html=1;points=[[0,0,0,0,5],[0,1,0,0,-5],[1,0,0,0,5],[1,1,0,0,-5]];perimeter=orthogonalPerimeter;outlineConnect=0;targetShapes=umlLifeline;portConstraint=eastwest;newEdgeStyle={&quot;curved&quot;:0,&quot;rounded&quot;:0};" vertex="1" parent="1">
          <mxGeometry x="560" y="135" width="10" height="60" as="geometry" />
        </mxCell>
        <mxCell id="F2qK8FS3vx5LsXxP8EU_-19" value="1: Login()" style="text;html=1;align=center;verticalAlign=middle;resizable=0;points=[];autosize=1;strokeColor=none;fillColor=none;fontSize=14;" vertex="1" parent="1">
          <mxGeometry x="285" y="150" width="80" height="30" as="geometry" />
        </mxCell>
        <mxCell id="F2qK8FS3vx5LsXxP8EU_-20" value="2: Successfully()" style="text;html=1;align=center;verticalAlign=middle;resizable=0;points=[];autosize=1;strokeColor=none;fillColor=none;fontSize=14;" vertex="1" parent="1">
          <mxGeometry x="580" y="195" width="130" height="30" as="geometry" />
        </mxCell>
        <mxCell id="F2qK8FS3vx5LsXxP8EU_-21" value="PROFILE DETAIL" style="rounded=0;whiteSpace=wrap;html=1;" vertex="1" parent="1">
          <mxGeometry x="670" y="80" width="110" height="40" as="geometry" />
        </mxCell>
        <mxCell id="F2qK8FS3vx5LsXxP8EU_-22" value="SHIFT TIME" style="rounded=0;whiteSpace=wrap;html=1;" vertex="1" parent="1">
          <mxGeometry x="840" y="80" width="110" height="40" as="geometry" />
        </mxCell>
        <mxCell id="F2qK8FS3vx5LsXxP8EU_-23" value="" style="endArrow=none;dashed=1;html=1;rounded=0;entryX=0.5;entryY=1;entryDx=0;entryDy=0;" edge="1" parent="1" source="F2qK8FS3vx5LsXxP8EU_-25" target="F2qK8FS3vx5LsXxP8EU_-21">
          <mxGeometry width="50" height="50" relative="1" as="geometry">
            <mxPoint x="735" y="440" as="sourcePoint" />
            <mxPoint x="575" y="130" as="targetPoint" />
          </mxGeometry>
        </mxCell>
        <mxCell id="F2qK8FS3vx5LsXxP8EU_-24" value="" style="endArrow=none;dashed=1;html=1;rounded=0;entryX=0.5;entryY=1;entryDx=0;entryDy=0;" edge="1" parent="1" target="F2qK8FS3vx5LsXxP8EU_-22">
          <mxGeometry width="50" height="50" relative="1" as="geometry">
            <mxPoint x="895" y="760" as="sourcePoint" />
            <mxPoint x="745" y="130" as="targetPoint" />
          </mxGeometry>
        </mxCell>
        <mxCell id="F2qK8FS3vx5LsXxP8EU_-26" value="" style="endArrow=none;dashed=1;html=1;rounded=0;entryX=0.5;entryY=1;entryDx=0;entryDy=0;" edge="1" parent="1" source="F2qK8FS3vx5LsXxP8EU_-45" target="F2qK8FS3vx5LsXxP8EU_-25">
          <mxGeometry width="50" height="50" relative="1" as="geometry">
            <mxPoint x="725" y="630" as="sourcePoint" />
            <mxPoint x="735" y="120" as="targetPoint" />
          </mxGeometry>
        </mxCell>
        <mxCell id="F2qK8FS3vx5LsXxP8EU_-25" value="" style="html=1;points=[[0,0,0,0,5],[0,1,0,0,-5],[1,0,0,0,5],[1,1,0,0,-5]];perimeter=orthogonalPerimeter;outlineConnect=0;targetShapes=umlLifeline;portConstraint=eastwest;newEdgeStyle={&quot;curved&quot;:0,&quot;rounded&quot;:0};" vertex="1" parent="1">
          <mxGeometry x="720" y="185" width="10" height="60" as="geometry" />
        </mxCell>
        <mxCell id="F2qK8FS3vx5LsXxP8EU_-30" value="" style="endArrow=none;html=1;rounded=0;" edge="1" parent="1">
          <mxGeometry width="50" height="50" relative="1" as="geometry">
            <mxPoint x="570" y="210" as="sourcePoint" />
            <mxPoint x="590" y="210" as="targetPoint" />
          </mxGeometry>
        </mxCell>
        <mxCell id="F2qK8FS3vx5LsXxP8EU_-31" value="" style="endArrow=classic;html=1;rounded=0;exitX=0;exitY=1;exitDx=0;exitDy=-5;exitPerimeter=0;" edge="1" parent="1" source="F2qK8FS3vx5LsXxP8EU_-25">
          <mxGeometry width="50" height="50" relative="1" as="geometry">
            <mxPoint x="570" y="260" as="sourcePoint" />
            <mxPoint x="570" y="240" as="targetPoint" />
          </mxGeometry>
        </mxCell>
        <mxCell id="F2qK8FS3vx5LsXxP8EU_-32" value="" style="endArrow=classic;html=1;rounded=0;" edge="1" parent="1" source="F2qK8FS3vx5LsXxP8EU_-20" target="F2qK8FS3vx5LsXxP8EU_-25">
          <mxGeometry width="50" height="50" relative="1" as="geometry">
            <mxPoint x="570" y="260" as="sourcePoint" />
            <mxPoint x="660" y="280" as="targetPoint" />
          </mxGeometry>
        </mxCell>
        <mxCell id="F2qK8FS3vx5LsXxP8EU_-34" value="" style="endArrow=none;dashed=1;html=1;rounded=0;entryX=0.5;entryY=1;entryDx=0;entryDy=0;" edge="1" parent="1" target="F2qK8FS3vx5LsXxP8EU_-33">
          <mxGeometry width="50" height="50" relative="1" as="geometry">
            <mxPoint x="565" y="750" as="sourcePoint" />
            <mxPoint x="565" y="120" as="targetPoint" />
          </mxGeometry>
        </mxCell>
        <mxCell id="F2qK8FS3vx5LsXxP8EU_-33" value="" style="html=1;points=[[0,0,0,0,5],[0,1,0,0,-5],[1,0,0,0,5],[1,1,0,0,-5]];perimeter=orthogonalPerimeter;outlineConnect=0;targetShapes=umlLifeline;portConstraint=eastwest;newEdgeStyle={&quot;curved&quot;:0,&quot;rounded&quot;:0};" vertex="1" parent="1">
          <mxGeometry x="560" y="320" width="10" height="60" as="geometry" />
        </mxCell>
        <mxCell id="F2qK8FS3vx5LsXxP8EU_-36" value="" style="endArrow=none;dashed=1;html=1;rounded=0;entryX=0.5;entryY=1;entryDx=0;entryDy=0;" edge="1" parent="1" target="F2qK8FS3vx5LsXxP8EU_-35">
          <mxGeometry width="50" height="50" relative="1" as="geometry">
            <mxPoint x="405" y="760" as="sourcePoint" />
            <mxPoint x="405" y="120" as="targetPoint" />
          </mxGeometry>
        </mxCell>
        <mxCell id="F2qK8FS3vx5LsXxP8EU_-35" value="" style="html=1;points=[[0,0,0,0,5],[0,1,0,0,-5],[1,0,0,0,5],[1,1,0,0,-5]];perimeter=orthogonalPerimeter;outlineConnect=0;targetShapes=umlLifeline;portConstraint=eastwest;newEdgeStyle={&quot;curved&quot;:0,&quot;rounded&quot;:0};" vertex="1" parent="1">
          <mxGeometry x="400" y="280" width="10" height="60" as="geometry" />
        </mxCell>
        <mxCell id="F2qK8FS3vx5LsXxP8EU_-38" value="" style="endArrow=none;dashed=1;html=1;rounded=0;entryX=0.5;entryY=1;entryDx=0;entryDy=0;" edge="1" parent="1" target="F2qK8FS3vx5LsXxP8EU_-37">
          <mxGeometry width="50" height="50" relative="1" as="geometry">
            <mxPoint x="245" y="760" as="sourcePoint" />
            <mxPoint x="245" y="120" as="targetPoint" />
          </mxGeometry>
        </mxCell>
        <mxCell id="F2qK8FS3vx5LsXxP8EU_-37" value="" style="html=1;points=[[0,0,0,0,5],[0,1,0,0,-5],[1,0,0,0,5],[1,1,0,0,-5]];perimeter=orthogonalPerimeter;outlineConnect=0;targetShapes=umlLifeline;portConstraint=eastwest;newEdgeStyle={&quot;curved&quot;:0,&quot;rounded&quot;:0};" vertex="1" parent="1">
          <mxGeometry x="240" y="230" width="10" height="60" as="geometry" />
        </mxCell>
        <mxCell id="F2qK8FS3vx5LsXxP8EU_-39" value="" style="endArrow=classic;html=1;rounded=0;" edge="1" parent="1" target="F2qK8FS3vx5LsXxP8EU_-37">
          <mxGeometry width="50" height="50" relative="1" as="geometry">
            <mxPoint x="80" y="260" as="sourcePoint" />
            <mxPoint x="380" y="290" as="targetPoint" />
          </mxGeometry>
        </mxCell>
        <mxCell id="F2qK8FS3vx5LsXxP8EU_-40" value="3: Register()" style="text;html=1;align=center;verticalAlign=middle;resizable=0;points=[];autosize=1;strokeColor=none;fillColor=none;fontSize=14;" vertex="1" parent="1">
          <mxGeometry x="110" y="230" width="100" height="30" as="geometry" />
        </mxCell>
        <mxCell id="F2qK8FS3vx5LsXxP8EU_-41" value="" style="endArrow=classic;html=1;rounded=0;" edge="1" parent="1" target="F2qK8FS3vx5LsXxP8EU_-35">
          <mxGeometry width="50" height="50" relative="1" as="geometry">
            <mxPoint x="250" y="310" as="sourcePoint" />
            <mxPoint x="380" y="210" as="targetPoint" />
          </mxGeometry>
        </mxCell>
        <mxCell id="F2qK8FS3vx5LsXxP8EU_-42" value="4:FillForm()" style="text;html=1;align=center;verticalAlign=middle;resizable=0;points=[];autosize=1;strokeColor=none;fillColor=none;fontSize=14;" vertex="1" parent="1">
          <mxGeometry x="275" y="280" width="100" height="30" as="geometry" />
        </mxCell>
        <mxCell id="F2qK8FS3vx5LsXxP8EU_-43" value="" style="endArrow=classic;html=1;rounded=0;" edge="1" parent="1" target="F2qK8FS3vx5LsXxP8EU_-33">
          <mxGeometry width="50" height="50" relative="1" as="geometry">
            <mxPoint x="410" y="350" as="sourcePoint" />
            <mxPoint x="550" y="350" as="targetPoint" />
          </mxGeometry>
        </mxCell>
        <mxCell id="F2qK8FS3vx5LsXxP8EU_-44" value="5: Submitted()" style="text;html=1;align=center;verticalAlign=middle;resizable=0;points=[];autosize=1;strokeColor=none;fillColor=none;fontSize=14;" vertex="1" parent="1">
          <mxGeometry x="425" y="320" width="110" height="30" as="geometry" />
        </mxCell>
        <mxCell id="F2qK8FS3vx5LsXxP8EU_-46" value="" style="endArrow=none;dashed=1;html=1;rounded=0;entryX=0.5;entryY=1;entryDx=0;entryDy=0;" edge="1" parent="1" source="F2qK8FS3vx5LsXxP8EU_-49" target="F2qK8FS3vx5LsXxP8EU_-45">
          <mxGeometry width="50" height="50" relative="1" as="geometry">
            <mxPoint x="725" y="630" as="sourcePoint" />
            <mxPoint x="725" y="245" as="targetPoint" />
          </mxGeometry>
        </mxCell>
        <mxCell id="F2qK8FS3vx5LsXxP8EU_-45" value="" style="html=1;points=[[0,0,0,0,5],[0,1,0,0,-5],[1,0,0,0,5],[1,1,0,0,-5]];perimeter=orthogonalPerimeter;outlineConnect=0;targetShapes=umlLifeline;portConstraint=eastwest;newEdgeStyle={&quot;curved&quot;:0,&quot;rounded&quot;:0};" vertex="1" parent="1">
          <mxGeometry x="720" y="360" width="10" height="60" as="geometry" />
        </mxCell>
        <mxCell id="F2qK8FS3vx5LsXxP8EU_-47" value="" style="endArrow=classic;html=1;rounded=0;" edge="1" parent="1" target="F2qK8FS3vx5LsXxP8EU_-45">
          <mxGeometry width="50" height="50" relative="1" as="geometry">
            <mxPoint x="570" y="390" as="sourcePoint" />
            <mxPoint x="660" y="430" as="targetPoint" />
          </mxGeometry>
        </mxCell>
        <mxCell id="F2qK8FS3vx5LsXxP8EU_-48" value="6:Relogin()" style="text;html=1;align=center;verticalAlign=middle;resizable=0;points=[];autosize=1;strokeColor=none;fillColor=none;fontSize=14;" vertex="1" parent="1">
          <mxGeometry x="595" y="360" width="90" height="30" as="geometry" />
        </mxCell>
        <mxCell id="F2qK8FS3vx5LsXxP8EU_-50" value="" style="endArrow=none;dashed=1;html=1;rounded=0;entryX=0.5;entryY=1;entryDx=0;entryDy=0;" edge="1" parent="1" source="F2qK8FS3vx5LsXxP8EU_-56" target="F2qK8FS3vx5LsXxP8EU_-49">
          <mxGeometry width="50" height="50" relative="1" as="geometry">
            <mxPoint x="725" y="630" as="sourcePoint" />
            <mxPoint x="725" y="420" as="targetPoint" />
          </mxGeometry>
        </mxCell>
        <mxCell id="F2qK8FS3vx5LsXxP8EU_-49" value="" style="html=1;points=[[0,0,0,0,5],[0,1,0,0,-5],[1,0,0,0,5],[1,1,0,0,-5]];perimeter=orthogonalPerimeter;outlineConnect=0;targetShapes=umlLifeline;portConstraint=eastwest;newEdgeStyle={&quot;curved&quot;:0,&quot;rounded&quot;:0};" vertex="1" parent="1">
          <mxGeometry x="720" y="440" width="10" height="60" as="geometry" />
        </mxCell>
        <mxCell id="F2qK8FS3vx5LsXxP8EU_-51" value="" style="endArrow=classic;html=1;rounded=0;" edge="1" parent="1" target="F2qK8FS3vx5LsXxP8EU_-49">
          <mxGeometry width="50" height="50" relative="1" as="geometry">
            <mxPoint x="570" y="470" as="sourcePoint" />
            <mxPoint x="680" y="430" as="targetPoint" />
          </mxGeometry>
        </mxCell>
        <mxCell id="F2qK8FS3vx5LsXxP8EU_-52" value="7:Update()" style="text;html=1;align=center;verticalAlign=middle;resizable=0;points=[];autosize=1;strokeColor=none;fillColor=none;fontSize=14;" vertex="1" parent="1">
          <mxGeometry x="595" y="440" width="90" height="30" as="geometry" />
        </mxCell>
        <mxCell id="F2qK8FS3vx5LsXxP8EU_-53" value="" style="endArrow=classic;html=1;rounded=0;" edge="1" parent="1">
          <mxGeometry width="50" height="50" relative="1" as="geometry">
            <mxPoint x="710" y="490" as="sourcePoint" />
            <mxPoint x="570" y="490" as="targetPoint" />
          </mxGeometry>
        </mxCell>
        <mxCell id="F2qK8FS3vx5LsXxP8EU_-60" value="" style="edgeStyle=orthogonalEdgeStyle;rounded=0;orthogonalLoop=1;jettySize=auto;html=1;" edge="1" parent="1" source="F2qK8FS3vx5LsXxP8EU_-55" target="F2qK8FS3vx5LsXxP8EU_-56">
          <mxGeometry relative="1" as="geometry" />
        </mxCell>
        <mxCell id="F2qK8FS3vx5LsXxP8EU_-55" value="8:Read()" style="text;html=1;align=center;verticalAlign=middle;resizable=0;points=[];autosize=1;strokeColor=none;fillColor=none;fontSize=14;" vertex="1" parent="1">
          <mxGeometry x="600" y="535" width="80" height="30" as="geometry" />
        </mxCell>
        <mxCell id="F2qK8FS3vx5LsXxP8EU_-57" value="" style="endArrow=none;dashed=1;html=1;rounded=0;entryX=0.5;entryY=1;entryDx=0;entryDy=0;" edge="1" parent="1" source="F2qK8FS3vx5LsXxP8EU_-68" target="F2qK8FS3vx5LsXxP8EU_-56">
          <mxGeometry width="50" height="50" relative="1" as="geometry">
            <mxPoint x="725" y="630" as="sourcePoint" />
            <mxPoint x="725" y="500" as="targetPoint" />
          </mxGeometry>
        </mxCell>
        <mxCell id="F2qK8FS3vx5LsXxP8EU_-56" value="" style="html=1;points=[[0,0,0,0,5],[0,1,0,0,-5],[1,0,0,0,5],[1,1,0,0,-5]];perimeter=orthogonalPerimeter;outlineConnect=0;targetShapes=umlLifeline;portConstraint=eastwest;newEdgeStyle={&quot;curved&quot;:0,&quot;rounded&quot;:0};" vertex="1" parent="1">
          <mxGeometry x="720" y="520" width="10" height="60" as="geometry" />
        </mxCell>
        <mxCell id="F2qK8FS3vx5LsXxP8EU_-58" value="" style="endArrow=none;html=1;rounded=0;" edge="1" parent="1">
          <mxGeometry width="50" height="50" relative="1" as="geometry">
            <mxPoint x="570" y="550" as="sourcePoint" />
            <mxPoint x="600" y="550" as="targetPoint" />
          </mxGeometry>
        </mxCell>
        <mxCell id="F2qK8FS3vx5LsXxP8EU_-59" value="" style="endArrow=classic;html=1;rounded=0;" edge="1" parent="1" source="F2qK8FS3vx5LsXxP8EU_-55" target="F2qK8FS3vx5LsXxP8EU_-56">
          <mxGeometry width="50" height="50" relative="1" as="geometry">
            <mxPoint x="680" y="550" as="sourcePoint" />
            <mxPoint x="680" y="430" as="targetPoint" />
          </mxGeometry>
        </mxCell>
        <mxCell id="F2qK8FS3vx5LsXxP8EU_-61" value="" style="endArrow=classic;html=1;rounded=0;exitX=0;exitY=1;exitDx=0;exitDy=-5;exitPerimeter=0;" edge="1" parent="1" source="F2qK8FS3vx5LsXxP8EU_-56">
          <mxGeometry width="50" height="50" relative="1" as="geometry">
            <mxPoint x="630" y="480" as="sourcePoint" />
            <mxPoint x="570" y="575" as="targetPoint" />
          </mxGeometry>
        </mxCell>
        <mxCell id="F2qK8FS3vx5LsXxP8EU_-65" value="9:Delete()" style="text;html=1;align=center;verticalAlign=middle;resizable=0;points=[];autosize=1;strokeColor=none;fillColor=none;fontSize=14;" vertex="1" parent="1">
          <mxGeometry x="605" y="610" width="80" height="30" as="geometry" />
        </mxCell>
        <mxCell id="F2qK8FS3vx5LsXxP8EU_-67" value="" style="endArrow=classic;html=1;rounded=0;exitX=1.013;exitY=0.467;exitDx=0;exitDy=0;exitPerimeter=0;" edge="1" parent="1" source="F2qK8FS3vx5LsXxP8EU_-65" target="F2qK8FS3vx5LsXxP8EU_-68">
          <mxGeometry width="50" height="50" relative="1" as="geometry">
            <mxPoint x="680" y="620" as="sourcePoint" />
            <mxPoint x="720" y="620" as="targetPoint" />
          </mxGeometry>
        </mxCell>
        <mxCell id="F2qK8FS3vx5LsXxP8EU_-69" value="" style="endArrow=none;dashed=1;html=1;rounded=0;entryX=0.5;entryY=1;entryDx=0;entryDy=0;" edge="1" parent="1" target="F2qK8FS3vx5LsXxP8EU_-68">
          <mxGeometry width="50" height="50" relative="1" as="geometry">
            <mxPoint x="725" y="630" as="sourcePoint" />
            <mxPoint x="725" y="580" as="targetPoint" />
          </mxGeometry>
        </mxCell>
        <mxCell id="F2qK8FS3vx5LsXxP8EU_-68" value="" style="html=1;points=[[0,0,0,0,5],[0,1,0,0,-5],[1,0,0,0,5],[1,1,0,0,-5]];perimeter=orthogonalPerimeter;outlineConnect=0;targetShapes=umlLifeline;portConstraint=eastwest;newEdgeStyle={&quot;curved&quot;:0,&quot;rounded&quot;:0};" vertex="1" parent="1">
          <mxGeometry x="720" y="600" width="10" height="60" as="geometry" />
        </mxCell>
        <mxCell id="F2qK8FS3vx5LsXxP8EU_-71" value="" style="endArrow=none;html=1;rounded=0;" edge="1" parent="1">
          <mxGeometry width="50" height="50" relative="1" as="geometry">
            <mxPoint x="570" y="625" as="sourcePoint" />
            <mxPoint x="600" y="625" as="targetPoint" />
          </mxGeometry>
        </mxCell>
        <mxCell id="F2qK8FS3vx5LsXxP8EU_-72" value="" style="endArrow=classic;html=1;rounded=0;exitX=0;exitY=1;exitDx=0;exitDy=-5;exitPerimeter=0;" edge="1" parent="1" source="F2qK8FS3vx5LsXxP8EU_-68">
          <mxGeometry width="50" height="50" relative="1" as="geometry">
            <mxPoint x="620" y="640" as="sourcePoint" />
            <mxPoint x="570" y="655" as="targetPoint" />
          </mxGeometry>
        </mxCell>
        <mxCell id="F2qK8FS3vx5LsXxP8EU_-73" value="10:View()" style="text;html=1;align=center;verticalAlign=middle;resizable=0;points=[];autosize=1;strokeColor=none;fillColor=none;fontSize=14;" vertex="1" parent="1">
          <mxGeometry x="685" y="690" width="80" height="30" as="geometry" />
        </mxCell>
        <mxCell id="F2qK8FS3vx5LsXxP8EU_-74" value="" style="endArrow=classic;html=1;rounded=0;exitX=-0.062;exitY=0.667;exitDx=0;exitDy=0;exitPerimeter=0;" edge="1" parent="1" source="F2qK8FS3vx5LsXxP8EU_-73">
          <mxGeometry width="50" height="50" relative="1" as="geometry">
            <mxPoint x="620" y="730" as="sourcePoint" />
            <mxPoint x="570" y="710" as="targetPoint" />
          </mxGeometry>
        </mxCell>
        <mxCell id="F2qK8FS3vx5LsXxP8EU_-75" value="" style="endArrow=classic;html=1;rounded=0;exitX=1.009;exitY=0.702;exitDx=0;exitDy=0;exitPerimeter=0;" edge="1" parent="1" source="F2qK8FS3vx5LsXxP8EU_-73">
          <mxGeometry width="50" height="50" relative="1" as="geometry">
            <mxPoint x="620" y="730" as="sourcePoint" />
            <mxPoint x="890" y="711" as="targetPoint" />
          </mxGeometry>
        </mxCell>
        <mxCell id="F2qK8FS3vx5LsXxP8EU_-76" value="" style="endArrow=classic;html=1;rounded=0;exitX=-0.002;exitY=0.467;exitDx=0;exitDy=0;exitPerimeter=0;" edge="1" parent="1">
          <mxGeometry width="50" height="50" relative="1" as="geometry">
            <mxPoint x="679.82" y="742.01" as="sourcePoint" />
            <mxPoint x="570" y="740" as="targetPoint" />
          </mxGeometry>
        </mxCell>
        <mxCell id="F2qK8FS3vx5LsXxP8EU_-77" value="11:Logout()" style="text;html=1;align=center;verticalAlign=middle;resizable=0;points=[];autosize=1;strokeColor=none;fillColor=none;fontSize=14;" vertex="1" parent="1">
          <mxGeometry x="680" y="730" width="90" height="30" as="geometry" />
        </mxCell>
        <mxCell id="F2qK8FS3vx5LsXxP8EU_-78" value="" style="endArrow=classic;html=1;rounded=0;exitX=1.043;exitY=0.61;exitDx=0;exitDy=0;exitPerimeter=0;" edge="1" parent="1" source="F2qK8FS3vx5LsXxP8EU_-77">
          <mxGeometry width="50" height="50" relative="1" as="geometry">
            <mxPoint x="630" y="630" as="sourcePoint" />
            <mxPoint x="890" y="748" as="targetPoint" />
          </mxGeometry>
        </mxCell>
      </root>
    </mxGraphModel>
  </diagram>
</mxfile>
